# xmcd
#
# Track frame offsets:
#	150
#	16405
#	33289
#	49180
#	63765
#	80116
#	97268
#	113330
#	130856
#	145624
#	163283
#	178460
#
# Disc length: 2703 seconds
# Revision: 1
# Processed by: cddbd v1.5.2PL0 Copyright (c) Steve Scherf et al.
# Submitted via: dBpowerAMP V12.0
#
DISCID=a30a8d0c
DTITLE=Ana Popovic - Blind for Love [Eclecto Groove Records]
DYEAR=2009
DGENRE=Blues
TTITLE0=Nothing Personal
TTITLE1=Wrong Woman
TTITLE2=Steal Me Away
TTITLE3=Blind For Love
TTITLE4=More Real
TTITLE5=Putting Out The APB
TTITLE6=Get Back Home To You
TTITLE7=The Only Reason
TTITLE8=Part Of Me (Lullaby For Luuk)
TTITLE9=Lives That Don't Exist
TTITLE10=Need Your Love
TTITLE11=Blues For M
EXTD=
EXTT0=
EXTT1=
EXTT2=
EXTT3=
EXTT4=
EXTT5=
EXTT6=
EXTT7=
EXTT8=
EXTT9=
EXTT10=
EXTT11=
PLAYORDER=
